<svg width="188" height="44" fill="none" xmlns="http://www.w3.org/2000/svg"><path d="M66.203 30.735c-.594 0-1.28-.091-2.055-.273l-2.452-.668.669-2.006c1.387.495 2.542.742 3.467.742.495 0 .908-.115 1.238-.346a1.09 1.09 0 00.495-.941c0-.396-.107-.694-.322-.892-.214-.198-.61-.371-1.188-.52l-1.338-.346c-1.849-.48-2.773-1.569-2.773-3.27 0-1.023.388-1.865 1.164-2.525.792-.66 1.824-.99 3.095-.99.512 0 1.115.09 1.808.271l2.452.67-.669 2.005c-1.337-.495-2.352-.743-3.046-.743-.462 0-.85.124-1.164.372a1.08 1.08 0 00-.47.916c0 .396.107.693.322.891.214.198.61.372 1.188.52l1.313.347c.99.264 1.7.669 2.13 1.214.429.528.643 1.213.643 2.055 0 1.007-.38 1.85-1.139 2.526-.76.66-1.882.99-3.368.99zm10.592 0c-1.239 0-2.114-.306-2.625-.917-.496-.61-.743-1.543-.743-2.798V21.1h-1.833v-2.179h1.833v-2.898l3.145-.619v3.517h2.724v2.18h-2.724v5.967c0 .975.396 1.462 1.188 1.462.48 0 .991-.15 1.536-.446l.495 1.857a5.851 5.851 0 01-2.996.793zm7.71 0c-1.122 0-2.014-.347-2.674-1.04a3.467 3.467 0 01-.99-2.477c0-.71.23-1.28.693-1.709.479-.445 1.222-.792 2.229-1.04l3.987-.99v-1.016c0-.479-.149-.858-.446-1.139-.28-.28-.677-.42-1.189-.42-.578 0-1.882.437-3.912 1.312l-.867-2.006 2.823-1.04c.858-.314 1.486-.47 1.882-.47 1.502 0 2.683.395 3.541 1.188.875.776 1.313 1.8 1.313 3.07v4.26c0 .314.05.784.148 1.412.116.61.264 1.13.446 1.56l-2.7.544c-.33-.363-.676-.866-1.04-1.51-1.105 1.007-2.187 1.51-3.243 1.51zm1.115-2.204c.644 0 1.354-.372 2.13-1.115v-2.501l-2.477.718c-.792.231-1.188.669-1.188 1.313 0 .495.14.883.42 1.163.281.281.653.421 1.115.421zm11.816 2.204c-1.238 0-2.113-.306-2.625-.917-.495-.61-.743-1.543-.743-2.798V21.1h-1.832v-2.179h1.832v-2.898l3.145-.619v3.517h2.724v2.18h-2.724v5.967c0 .975.396 1.462 1.189 1.462.479 0 .99-.15 1.535-.446l.496 1.857a5.854 5.854 0 01-2.997.793zm34.976-.223h-3.145V23.75c0-.99-.148-1.709-.445-2.155-.281-.462-.735-.693-1.362-.693-.628 0-1.305.372-2.031 1.114v8.495h-3.145V23.75c0-.99-.141-1.709-.421-2.155-.281-.462-.743-.693-1.387-.693-.611 0-1.288.372-2.031 1.114v8.495H115.3v-8.296c0-.314-.058-.776-.173-1.387-.099-.628-.24-1.156-.421-1.585l2.674-.545c.347.347.702.85 1.065 1.51 1.04-1.006 2.122-1.51 3.244-1.51 1.668 0 2.799.586 3.393 1.758.363-.478.883-.891 1.56-1.238s1.354-.52 2.031-.52c1.255 0 2.187.363 2.798 1.09.628.726.941 1.857.941 3.392v7.33zm5.71.223c-1.122 0-2.014-.347-2.674-1.04a3.465 3.465 0 01-.991-2.477c0-.71.231-1.28.694-1.709.478-.445 1.221-.792 2.228-1.04l3.987-.99v-1.016c0-.479-.148-.858-.445-1.139-.281-.28-.677-.42-1.189-.42-.578 0-1.882.437-3.913 1.312l-.867-2.006 2.824-1.04c.858-.314 1.485-.47 1.882-.47 1.502 0 2.682.395 3.541 1.188.875.776 1.312 1.8 1.312 3.07v4.26c0 .314.05.784.149 1.412.116.61.264 1.13.446 1.56l-2.699.544c-.331-.363-.677-.866-1.041-1.51-1.106 1.007-2.187 1.51-3.244 1.51zm1.115-2.204c.644 0 1.353-.372 2.129-1.115v-2.501l-2.476.718c-.792.231-1.189.669-1.189 1.313 0 .495.141.883.421 1.163.281.281.652.421 1.115.421zm11.24 1.98h-3.145v-8.295c0-.314-.057-.776-.173-1.387-.099-.628-.239-1.156-.421-1.585l2.675-.545c.511.512.866 1.205 1.064 2.08.331-.66.768-1.172 1.313-1.535a3.267 3.267 0 011.808-.545c.363 0 .693.058.99.173l-.545 2.7h-.817c-.776 0-1.387.19-1.832.57-.43.363-.735.973-.917 1.832v6.538zm16.354 0h-3.863l-3.839-5.992v5.993h-3.145V13.969l3.145-.619v10.302l3.913-4.73h3.541l-4.655 5.176 4.903 6.414zm5.637.224c-1.865 0-3.277-.553-4.234-1.66-.941-1.122-1.412-2.592-1.412-4.408 0-1.816.487-3.26 1.461-4.334.974-1.09 2.328-1.634 4.061-1.634 3.352 0 5.028 1.742 5.028 5.225 0 .364-.042.669-.124.917h-7.182c0 1.238.223 2.162.669 2.773.462.611 1.098.916 1.907.916.908 0 2.096-.33 3.566-.99l.866 2.006-2.625.966c-.445.148-1.106.223-1.981.223zm-.297-9.832c-.66 0-1.18.231-1.56.694-.363.462-.545 1.04-.545 1.733h4.037c0-1.618-.644-2.427-1.932-2.427zm11.368 9.832c-1.239 0-2.114-.306-2.626-.917-.495-.61-.742-1.543-.742-2.798V21.1h-1.833v-2.179h1.833v-2.898l3.145-.619v3.517h2.724v2.18h-2.724v5.967c0 .975.396 1.462 1.188 1.462.479 0 .991-.15 1.536-.446l.495 1.857a5.851 5.851 0 01-2.996.793z" fill="#54618E"/><path d="M111.71 30.512h-2.997v-3.814h-6.761l-.668-1.932 7.058-10.103h3.368v9.707h1.585v2.328h-1.585v3.814zm-2.997-6.142v-6.439l-4.383 6.44h4.383z" fill="#D653D2"/><mask id="mask0_1458_22844" style="mask-type:alpha" maskUnits="userSpaceOnUse" x="0" y="0" width="47" height="44"><ellipse cx="23.5" cy="22" rx="23.5" ry="22" fill="url(#paint0_linear_1458_22844)"/></mask><g mask="url(#mask0_1458_22844)"><ellipse cx="23.5" cy="22" rx="23.5" ry="22" fill="url(#paint1_linear_1458_22844)"/><path d="M30.973 28.105V3.652c0-.374.012-.781.035-1.221.047-.44.094-.891.141-1.353L9.576 28.105h21.397zm19.97 0v1.716a.78.78 0 01-.247.594c-.142.132-.377.198-.706.198H33.934V44.01h-2.961V30.613H7.391c-.353 0-.623-.066-.811-.198a1.172 1.172 0 01-.388-.594l-.317-1.551L30.938-2.75h2.996v30.855h17.008z" fill="#fff"/></g><defs><linearGradient id="paint0_linear_1458_22844" x1="54.05" y1="-13.2" x2="17.128" y2="46.245" gradientUnits="userSpaceOnUse"><stop stop-color="#F0A"/><stop offset="1" stop-color="#8912DE"/></linearGradient><linearGradient id="paint1_linear_1458_22844" x1="54.05" y1="-13.2" x2="17.128" y2="46.245" gradientUnits="userSpaceOnUse"><stop stop-color="#F0A"/><stop offset="1" stop-color="#8912DE"/></linearGradient></defs></svg>